#!OML:ASF I:\Actors\actors\Patient Classification 1\Patient 1\Session 1\Subject1.ASF
:FULLY-SPECIFIED
:DEGREES
1394
root 0.930937 17.6247 8.7765 11.9439 1.54169 -7.69968
lowerback -0.464683 2.37792 0.789742
upperback -9.9239 3.35843 0.9647
thorax -10.2717 1.64227 0.303478
lowerneck -8.79174 -11.1978 -7.29574
upperneck 27.4981 -16.4608 6.13732
head 11.5372 -7.59629 1.26151
rclavicle 3.97569e-016 -2.14687e-014
rhumerus 7.25919 35.5749 -43.6231
rradius 126.725
rwrist -8.10766
rhand 39.2139 -57.0272
rfingers 7.12502
rthumb 61.7404 -68.8407
lclavicle 3.97569e-016 -2.14687e-014
lhumerus 7.79116 -38.0866 61.2353
lradius 114.191
lwrist 12.2163
lhand 60.3787 1.53605
lfingers 7.12502
lthumb 74.679 -32.2259
rfemur -4.15391 27.69 19.199
rtibia 1.08752
rfoot -15.8373 -31.7627
rtoes 3.55833
lfemur 364.149 -53.241 344.313
ltibia -4.67169
lfoot -30.9017 61.6224
ltoes 20.6451
1395
root 0.895356 17.6256 8.76507 11.9163 1.71133 -7.65525
lowerback -0.423236 2.39933 1.04871
upperback -9.83485 3.40942 1.07357
thorax -10.1881 1.6513 0.271618
lowerneck -8.98885 -10.9423 -7.18026
upperneck 27.4608 -15.9983 5.83882
head 11.4825 -7.40229 1.20011
rclavicle -3.55825e-014 -3.33958e-014
rhumerus 7.77578 35.7106 -43.4005
rradius 126.527
rwrist -7.99861
rhand 39.9361 -57.0816
rfingers 7.12502
rthumb 62.3422 -68.1428
lclavicle -3.55825e-014 -3.33958e-014
lhumerus 7.52322 -37.7487 61.4603
lradius 114.215
lwrist 11.9306
lhand 60.265 1.37807
lfingers 7.12502
lthumb 74.6564 -31.9773
rfemur -4.11007 27.7098 19.303
rtibia 1.08012
rfoot -15.859 -31.8862
rtoes 3.59559
lfemur 363.81 -52.7307 344.704
ltibia -4.67881
lfoot -29.8858 61.1657
ltoes 20.0492
1396
root 0.861003 17.6275 8.75341 11.8967 1.88896 -7.57212
lowerback -0.357571 2.43473 1.30186
upperback -9.80185 3.47536 1.11228
thorax -10.178 1.66402 0.164724
lowerneck -8.92537 -10.7601 -7.26332
upperneck 27.3261 -15.7081 5.86554
head 11.4048 -7.28007 1.27319
rclavicle 4.96962e-016 7.15625e-015
rhumerus 7.91007 35.8134 -43.3654
rradius 126.443
rwrist -7.90291
rhand 39.2357 -57.2736
rfingers 7.12502
rthumb 61.7586 -69.0648
lclavicle 4.96962e-016 7.15625e-015
lhumerus 7.34757 -37.5788 61.6683
lradius 114.194
lwrist 11.7085
lhand 60.4162 0.987751
lfingers 7.12502
lthumb 74.6862 -32.9085
rfemur -4.07817 27.7306 19.3533
rtibia 1.08372
rfoot -15.9945 -31.9915
rtoes 3.91644
lfemur 363.513 -52.3201 345.017
ltibia -4.69136
lfoot -28.9004 60.7588
ltoes 19.3587
1397
root 0.826505 17.6294 8.74285 11.8507 2.05406 -7.52605
lowerback -0.320313 2.45025 1.59936
upperback -9.74493 3.513 1.12652
thorax -10.1193 1.65827 0.0115788
lowerneck -8.98482 -10.5772 -7.20356
upperneck 27.3094 -15.4302 5.8192
head 11.3776 -7.15082 1.28765
rclavicle -3.00165e-014 -2.3059e-014
rhumerus 7.92782 35.8299 -43.5272
rradius 126.371
rwrist -7.83764
rhand 38.5863 -57.427
rfingers 7.12502
rthumb 61.2133 -69.8672
lclavicle -3.00165e-014 -2.3059e-014
lhumerus 7.28078 -37.4576 61.7176
lradius 114.198
lwrist 11.6685
lhand 60.6415 0.917854
lfingers 7.12502
lthumb 74.7281 -33.7879
rfemur -4.01432 27.6934 19.4591
rtibia 1.04488
rfoot -16.0279 -32.0718
rtoes 3.85462
lfemur 363.28 -51.8622 345.313
ltibia -4.70455
lfoot -27.7742 60.3513
ltoes 18.6365
1398
root 0.791029 17.6294 8.73343 11.8125 2.2003 -7.55158
lowerback -0.335478 2.41334 1.93489
upperback -9.65544 3.48305 1.19619
thorax -9.99474 1.62012 -0.0949429
lowerneck -9.25258 -10.3668 -7.02227
upperneck 27.4384 -15.0837 5.57933
head 11.4139 -6.99069 1.2111
rclavicle 2.85256e-014 -1.55052e-014
rhumerus 8.07456 35.7908 -43.7542
rradius 126.181
rwrist -7.78231
rhand 38.6225 -57.2212
rfingers 7.12502
rthumb 61.2438 -69.626
lclavicle 2.85256e-014 -1.55052e-014
lhumerus 7.20332 -37.2386 61.7403
lradius 114.234
lwrist 11.7272
lhand 60.5691 1.08971
lfingers 7.12502
lthumb 74.715 -33.3556
rfemur -3.91684 27.8231 19.6675
rtibia 0.952805
rfoot -16.1289 -32.287
rtoes 3.96364
lfemur 362.99 -51.2471 345.737
ltibia -4.71086
lfoot -26.707 59.8057
ltoes 18.0129
